<svg width="11" height="11" viewBox="0 0 11 11" fill="none" xmlns="http://www.w3.org/2000/svg">
<path fill-rule="evenodd" clip-rule="evenodd" d="M4.80003 10.0911C4.80003 10.4777 5.11343 10.7911 5.50003 10.7911C5.88663 10.7911 6.20003 10.4777 6.20003 10.0911L6.20003 6.20002L10.0912 6.20002C10.4778 6.20002 10.7912 5.88662 10.7912 5.50002C10.7912 5.11342 10.4778 4.80002 10.0912 4.80002L6.20003 4.80002L6.20002 0.908875C6.20002 0.522276 5.88662 0.208875 5.50002 0.208874C5.11342 0.208874 4.80002 0.522275 4.80002 0.908874L4.80003 4.80002L0.908906 4.80001C0.522306 4.80001 0.208906 5.11341 0.208906 5.50001C0.208907 5.88661 0.522308 6.20001 0.908908 6.20001L4.80003 6.20002L4.80003 10.0911Z" fill="#5E67EB"/>
</svg>
